<!--?xml version="1.0" encoding="UTF-8" standalone="no"?-->
<svg xmlns="http://www.w3.org/2000/svg" width="64" height="64" viewBox="0 0 512 512" preserveAspectRatio="xMidYMid meet">

    <!-- Package Box -->
    <rect x="176" y="232" width="160" height="112" rx="14" ry="14" fill="#FDEBD0" stroke="#E67E22" stroke-width="20"></rect>

    <line x1="176" y1="288" x2="336" y2="288" stroke="#E67E22" stroke-width="16"></line>

    <!-- Gear -->
    <circle cx="256" cy="152" r="44" fill="#EBF5FB" stroke="#3498DB" stroke-width="20"></circle>

    <circle cx="256" cy="152" r="14" fill="#3498DB"></circle>

    <rect x="248" y="88" width="16" height="40" fill="#3498DB"></rect>
    <rect x="248" y="176" width="16" height="40" fill="#3498DB"></rect>
    <rect x="192" y="144" width="40" height="16" fill="#3498DB"></rect>
    <rect x="280" y="144" width="40" height="16" fill="#3498DB"></rect>

    <rect x="214" y="104" width="16" height="40" transform="rotate(-45 222 124)" fill="#3498DB"></rect>

    <rect x="282" y="104" width="16" height="40" transform="rotate(45 290 124)" fill="#3498DB"></rect>

    <rect x="214" y="172" width="16" height="40" transform="rotate(45 222 192)" fill="#3498DB"></rect>

    <rect x="282" y="172" width="16" height="40" transform="rotate(-45 290 192)" fill="#3498DB"></rect>

    <!-- Flow Arrow -->
    <path d="M96 288 H150" stroke="#2ECC71" stroke-width="18" stroke-linecap="round"></path>

    <path d="M362 288 H416" stroke="#2ECC71" stroke-width="18" stroke-linecap="round"></path>

    <polygon points="416,272 448,288 416,304" fill="#2ECC71"></polygon>

</svg>
